<?xml version="1.0" encoding="utf-8"?>
<!-- Generator: Adobe Illustrator 23.0.0, SVG Export Plug-In . SVG Version: 6.00 Build 0)  -->
<svg version="1.1" id="Capa_1" xmlns="http://www.w3.org/2000/svg" xmlns:xlink="http://www.w3.org/1999/xlink" x="0px" y="0px"
	 viewBox="0 0 32 32" style="enable-background:new 0 0 32 32;" xml:space="preserve">
<style type="text/css">
	.st0{fill:#FFFFFF;}
</style>
<path class="st0" d="M16.9,25.7c0-0.3,0-0.5-0.1-0.8c-0.1-0.2-0.1-0.5-0.2-0.7c-0.1-0.2-0.2-0.4-0.3-0.7c-0.2-0.2-0.3-0.4-0.4-0.6
	c-0.1-0.2-0.3-0.3-0.5-0.6l-0.5-0.5c-0.1-0.1-0.3-0.3-0.6-0.5c-0.3-0.2-0.5-0.4-0.6-0.4c-0.1,0-0.3-0.2-0.6-0.4
	c-0.3-0.2-0.5-0.4-0.6-0.4h-1c-0.7,0-1.4,0-2,0.1c-0.7,0.1-1.4,0.2-2.1,0.5c-0.7,0.2-1.3,0.5-1.9,0.9s-1,0.8-1.3,1.4
	c-0.3,0.6-0.5,1.3-0.5,2.1c0,0.9,0.2,1.7,0.7,2.3c0.5,0.7,1.1,1.2,1.8,1.6s1.5,0.7,2.3,0.9c0.8,0.2,1.6,0.3,2.4,0.3
	c0.8,0,1.5-0.1,2.2-0.2c0.7-0.2,1.3-0.4,1.9-0.8c0.6-0.3,1.1-0.8,1.4-1.4C16.7,27.2,16.9,26.5,16.9,25.7z M14.6,9.3
	c0-0.8-0.1-1.6-0.3-2.5s-0.5-1.7-0.9-2.5s-0.9-1.5-1.6-2c-0.7-0.5-1.5-0.8-2.3-0.8C8.4,1.6,7.5,2,6.8,2.9s-1,1.9-1,3.2
	c0,0.6,0.1,1.2,0.2,1.9s0.4,1.3,0.7,2c0.3,0.7,0.7,1.3,1.1,1.8c0.4,0.5,0.9,1,1.5,1.3c0.6,0.3,1.2,0.5,1.9,0.5
	c1.2,0,2.1-0.4,2.7-1.2C14.3,11.6,14.6,10.6,14.6,9.3z M12.1,0.3h8.3l-2.6,1.5h-2.6c0.9,0.6,1.6,1.4,2.1,2.4c0.5,1,0.8,2.1,0.8,3.2
	c0,0.9-0.1,1.8-0.4,2.5c-0.3,0.7-0.7,1.3-1.1,1.8c-0.4,0.4-0.8,0.9-1.3,1.2c-0.4,0.4-0.8,0.8-1.1,1.2c-0.3,0.4-0.4,0.8-0.4,1.3
	c0,0.3,0.1,0.7,0.3,1c0.2,0.3,0.5,0.6,0.8,0.9s0.7,0.6,1.1,0.9s0.8,0.7,1.2,1.1c0.4,0.4,0.8,0.8,1.1,1.3c0.3,0.5,0.6,1,0.8,1.6
	c0.2,0.6,0.3,1.3,0.3,2c0,2.1-0.9,3.9-2.7,5.3c-1.9,1.7-4.5,2.5-8,2.5c-0.8,0-1.5-0.1-2.3-0.2c-0.8-0.1-1.6-0.3-2.3-0.6
	c-0.8-0.3-1.5-0.7-2.1-1.1s-1.1-1-1.5-1.7c-0.3-0.6-0.5-1.3-0.5-2.2c0-0.8,0.2-1.6,0.7-2.6c0.4-0.8,1-1.5,1.8-2.1
	c0.8-0.6,1.8-1.1,2.8-1.4c1-0.3,2-0.5,3-0.7c0.9-0.1,1.9-0.2,2.9-0.3c-0.8-1.1-1.2-2-1.2-2.9v-0.5c0-0.1,0.1-0.3,0.1-0.4
	c0-0.1,0.1-0.2,0.2-0.4c0.1-0.2,0.1-0.3,0.1-0.4c-0.5,0.1-1,0.1-1.3,0.1c-1.9,0-3.5-0.6-4.8-1.9s-2-2.8-2-4.6c0-1.8,0.6-3.4,1.8-4.7
	C5.3,2,6.8,1.1,8.6,0.7C9.8,0.4,11,0.3,12.1,0.3z M31.8,5.1v2.5H27v4.8h-2.5V7.6h-4.8V5.1h4.8V0.3H27v4.8H31.8z"/>
</svg>
