<svg xmlns="http://www.w3.org/2000/svg" xmlns:xlink="http://www.w3.org/1999/xlink" viewBox="0 0 116 112">
    <symbol id="a" viewBox="-154.73 -34 115.45 112">
        <path d="M-76.52 12.37a3.662 3.662 0 005.16.25l30.89-28.06c1.49-1.35 1.61-3.68.25-5.17L-51.25-32.8a3.65 3.65 0 00-5.15-.25L-87.3-4.99c-1.49 1.35-1.61 3.68-.25 5.17l11.03 12.19zm-75.98 11.95c5.79-16.73 21.46-27.23 38.22-27.23 4.38 0 8.84.73 13.22 2.24 21.11 7.3 32.3 30.33 25 51.44C-81.84 67.5-97.52 78-114.28 78c-4.38 0-8.85-.72-13.22-2.24-21.11-7.3-32.29-30.33-25-51.44zm11.71 26.11c3.44 7.09 9.44 12.4 16.87 14.98 3.14 1.08 6.38 1.63 9.64 1.63 12.55 0 23.75-7.98 27.86-19.85 2.57-7.44 2.1-15.44-1.35-22.52-3.44-7.08-9.44-12.4-16.88-14.97a29.438 29.438 0 00-9.64-1.63c-12.55 0-23.75 7.98-27.86 19.85-2.56 7.42-2.08 15.42 1.36 22.51z"/>
    </symbol>
    <use xlink:href="#a" width="115.45" height="112" x="-154.73" y="-34" transform="matrix(1 0 0 -1 155 78)" overflow="visible"/>
</svg>
