<svg version="1.1" id="Capa_1" xmlns="http://www.w3.org/2000/svg" xmlns:xlink="http://www.w3.org/1999/xlink" x="0px" y="0px"
	 viewBox="0 0 30 56.7" style="enable-background:new 0 0 30 56.7;" xml:space="preserve">
<path fill='#7377bf' class="st0" d="M1.4,0.4c0.4,0.3,0.7,0.5,1,0.9c9,8.7,18.1,17.5,27.1,26.2c0.6,0.6,0.6,1.2,0,1.8c-9.1,8.8-18.3,17.7-27.4,26.5
	C1.8,56,1.5,56.4,1,56.2c-0.3-0.1-0.7-0.4-0.8-0.7c-0.2-0.4,0-0.8,0.3-1.2c1-1,2.1-2,3.1-3c7.8-7.5,15.5-15,23.3-22.5
	c0.1-0.1,0.2-0.3,0.4-0.4c-0.2-0.2-0.3-0.3-0.4-0.4C18.2,19.5,9.5,11.1,0.8,2.6C0.5,2.4,0.3,2,0.2,1.7C0,1.1,0.5,0.7,1,0.4
	C1.1,0.4,1.3,0.4,1.4,0.4z"/>
</svg>
